<?xml version="1.0" encoding="UTF-8" standalone="no"?>
<!-- Generator: Adobe Illustrator 26.0.3, SVG Export Plug-In . SVG Version: 6.00 Build 0)  -->

<svg
   version="1.0"
   id="katman_1"
   x="0px"
   y="0px"
   viewBox="0 0 489 502.20001"
   xml:space="preserve"
   sodipodi:docname="solana.svg"
   inkscape:export-filename="solana2.svg"
   inkscape:export-xdpi="96"
   inkscape:export-ydpi="96"
   width="489"
   height="502.20001"
   inkscape:version="1.4 (e7c3feb100, 2024-10-09)"
   xmlns:inkscape="http://www.inkscape.org/namespaces/inkscape"
   xmlns:sodipodi="http://sodipodi.sourceforge.net/DTD/sodipodi-0.dtd"
   xmlns="http://www.w3.org/2000/svg"
   xmlns:svg="http://www.w3.org/2000/svg"><defs
   id="defs2" /><sodipodi:namedview
   id="namedview2"
   pagecolor="#ffffff"
   bordercolor="#000000"
   borderopacity="0.25"
   inkscape:showpageshadow="2"
   inkscape:pageopacity="0.0"
   inkscape:pagecheckerboard="false"
   inkscape:deskcolor="#d1d1d1"
   inkscape:zoom="0.62873578"
   inkscape:cx="263.22663"
   inkscape:cy="259.2504"
   inkscape:window-width="1239"
   inkscape:window-height="761"
   inkscape:window-x="0"
   inkscape:window-y="0"
   inkscape:window-maximized="0"
   inkscape:current-layer="katman_1"
   inkscape:export-bgcolor="#ffffff00" />
<style
   type="text/css"
   id="style1">
	.st0{fill:#232323;}
	.st1{fill:url(#SVGID_1_);}
</style>
<path
   class="st0"
   d="m 244.3,0 h 0.4 C 379.6,0 489,109.4 489,244.3 v 13.6 c 0,134.9 -109.4,244.3 -244.3,244.3 h -0.4 C 109.4,502.2 0,392.8 0,257.9 V 244.3 C 0,109.4 109.4,0 244.3,0 Z"
   id="path1"
   style="color:#000000;font-style:normal;font-variant:normal;font-weight:normal;font-stretch:normal;font-size:medium;line-height:normal;font-family:sans-serif;font-variant-ligatures:normal;font-variant-position:normal;font-variant-caps:normal;font-variant-numeric:normal;font-variant-alternates:normal;font-variant-east-asian:normal;font-feature-settings:normal;font-variation-settings:normal;text-indent:0;text-align:start;text-decoration-line:none;text-decoration-style:solid;text-decoration-color:#000000;letter-spacing:normal;word-spacing:normal;text-transform:none;writing-mode:lr-tb;direction:ltr;text-orientation:mixed;dominant-baseline:auto;baseline-shift:baseline;text-anchor:start;white-space:normal;shape-padding:0;shape-margin:0;inline-size:0;clip-rule:nonzero;display:inline;overflow:visible;visibility:visible;isolation:auto;mix-blend-mode:normal;color-interpolation:sRGB;color-interpolation-filters:linearRGB;solid-color:#000000;solid-opacity:1;vector-effect:none;fill:#232323;fill-opacity:1;fill-rule:nonzero;stroke:none;stroke-linecap:butt;stroke-linejoin:miter;stroke-miterlimit:4;stroke-dasharray:none;stroke-dashoffset:0;stroke-opacity:1;-inkscape-stroke:none;color-rendering:auto;image-rendering:auto;shape-rendering:auto;text-rendering:auto;enable-background:accumulate;stop-color:#000000;stop-opacity:1" />
<linearGradient
   id="SVGID_1_"
   gradientUnits="userSpaceOnUse"
   x1="300.54901"
   y1="184.6306"
   x2="547.98389"
   y2="425.52869"
   gradientTransform="matrix(1,0,0,-1,-176.2449,555.8622)">
	<stop
   offset="0"
   style="stop-color:#CF41E8"
   id="stop1" />
	<stop
   offset="1"
   style="stop-color:#10F2B0"
   id="stop2" />
</linearGradient>
<path
   class="st1"
   d="m 349,189 c -0.8,0.9 -1.8,1.6 -2.9,2 -1.1,0.5 -2.3,0.7 -3.5,0.7 H 116.1 c -8,0 -12.1,-10 -6.5,-16 l 37.2,-39.5 c 0.8,-0.9 1.8,-1.6 3,-2.1 1.1,-0.5 2.3,-0.7 3.5,-0.7 h 227.4 c 8.1,0 12.1,10.1 6.4,16.1 z m 0,176.6 c -1.7,1.7 -4,2.7 -6.4,2.7 H 116.1 c -8,0 -12.1,-9.8 -6.5,-15.6 l 37.2,-38.6 c 0.8,-0.9 1.9,-1.6 3,-2 1.1,-0.5 2.3,-0.7 3.5,-0.7 h 227.4 c 8.1,0 12.1,9.9 6.4,15.7 z m 0,-140.5 c -1.7,-1.7 -4,-2.7 -6.4,-2.7 H 116.1 c -8,0 -12.1,9.8 -6.5,15.6 l 37.2,38.6 c 0.8,0.9 1.9,1.6 3,2 1.1,0.5 2.3,0.7 3.5,0.7 h 227.4 c 8.1,0 12.1,-9.9 6.4,-15.7 z"
   id="path2"
   inkscape:export-filename="path2.svg"
   inkscape:export-xdpi="96"
   inkscape:export-ydpi="96"
   style="color:#000000;font-style:normal;font-variant:normal;font-weight:normal;font-stretch:normal;font-size:medium;line-height:normal;font-family:sans-serif;font-variant-ligatures:normal;font-variant-position:normal;font-variant-caps:normal;font-variant-numeric:normal;font-variant-alternates:normal;font-variant-east-asian:normal;font-feature-settings:normal;font-variation-settings:normal;text-indent:0;text-align:start;text-decoration-line:none;text-decoration-style:solid;text-decoration-color:#000000;letter-spacing:normal;word-spacing:normal;text-transform:none;writing-mode:lr-tb;direction:ltr;text-orientation:mixed;dominant-baseline:auto;baseline-shift:baseline;text-anchor:start;white-space:normal;shape-padding:0;shape-margin:0;inline-size:0;clip-rule:nonzero;display:inline;overflow:visible;visibility:visible;isolation:auto;mix-blend-mode:normal;color-interpolation:sRGB;color-interpolation-filters:linearRGB;solid-color:#000000;solid-opacity:1;vector-effect:none;fill:url(#SVGID_1_);fill-opacity:1;fill-rule:nonzero;stroke:none;stroke-linecap:butt;stroke-linejoin:miter;stroke-miterlimit:4;stroke-dasharray:none;stroke-dashoffset:0;stroke-opacity:1;-inkscape-stroke:none;color-rendering:auto;image-rendering:auto;shape-rendering:auto;text-rendering:auto;enable-background:accumulate;stop-color:#000000;stop-opacity:1" />
</svg>
